<svg width="111" height="23" viewBox="0 0 111 23" fill="none" xmlns="http://www.w3.org/2000/svg">
<path d="M48.0649 14.791C48.0649 10.525 45.554 7.31201 41.666 7.31201C39.938 7.31201 38.4799 8.04101 37.4269 9.44501V2.61401H33.674V22H37.13V19.921C38.237 21.433 39.803 22.27 41.666 22.27C45.554 22.27 48.0649 19.003 48.0649 14.791ZM44.2039 14.791C44.2039 17.491 42.6649 18.922 40.8289 18.922C38.9659 18.922 37.4539 17.464 37.4539 14.737C37.4539 12.01 39.0199 10.633 40.8289 10.633C42.6649 10.633 44.2039 12.037 44.2039 14.791ZM52.8998 22V2.61401H49.1199V22H52.8998ZM63.5014 22H66.5523V12.928C66.5523 9.39101 64.3384 7.31201 60.5583 7.31201C57.0753 7.31201 54.6724 9.47201 54.4564 12.793H57.8314C57.9664 11.173 58.9383 10.228 60.5583 10.228C62.1243 10.228 63.0424 11.173 63.0424 12.793V13.657C62.1514 13.549 61.4494 13.495 60.6394 13.495C56.4274 13.495 54.1594 15.007 54.1594 17.815C54.1594 20.515 56.1574 22.27 59.1544 22.27C61.1254 22.27 62.5564 21.568 63.5014 20.218V22ZM57.6964 17.707C57.6964 16.411 58.7494 15.736 60.8824 15.736C61.5304 15.736 62.1514 15.79 63.0424 15.925V16.951C63.0424 18.625 61.8814 19.678 59.9644 19.678C58.5604 19.678 57.6964 18.922 57.6964 17.707ZM72.1894 14.143C72.1894 11.821 73.4584 10.633 74.9434 10.633C76.6444 10.633 77.4814 11.821 77.4814 13.954V22H81.2074V12.685C81.2074 9.20201 79.2095 7.31201 76.3205 7.31201C74.4305 7.31201 72.9455 8.20301 71.8925 9.63401V7.58201H68.4365V22H72.1894V14.143ZM86.8443 22V15.304L92.3524 22H97.1314L90.4624 14.494L96.4293 7.58201H92.1093L86.8443 13.684V2.61401H83.0914V22H86.8443ZM102.984 22.27C107.169 22.27 110.301 18.976 110.301 14.791C110.301 10.579 107.169 7.31201 102.984 7.31201C98.7994 7.31201 95.6675 10.579 95.6675 14.791C95.6675 18.976 98.7994 22.27 102.984 22.27ZM102.984 18.949C101.121 18.949 99.5285 17.464 99.5285 14.791C99.5285 12.118 101.121 10.66 102.984 10.66C104.847 10.66 106.44 12.118 106.44 14.791C106.44 17.464 104.847 18.949 102.984 18.949Z" fill="white"/>
<path d="M22 0H17V17H22V0Z" fill="#FF7043"/>
<path d="M17 22V17H0V22H17Z" fill="#FF7043"/>
<path d="M22 5V0L5 0V5L22 5Z" fill="#FF7043"/>
<path d="M0 22H5L5 5H0L0 22Z" fill="#FF7043"/>
</svg>
